<?xml version="1.0" encoding="UTF-8" standalone="no"?>
<svg
   xmlns:dc="http://purl.org/dc/elements/1.1/"
   xmlns:cc="http://creativecommons.org/ns#"
   xmlns:rdf="http://www.w3.org/1999/02/22-rdf-syntax-ns#"
   xmlns:svg="http://www.w3.org/2000/svg"
   xmlns="http://www.w3.org/2000/svg"
   xmlns:sodipodi="http://sodipodi.sourceforge.net/DTD/sodipodi-0.dtd"
   xmlns:inkscape="http://www.inkscape.org/namespaces/inkscape"
   inkscape:export-ydpi="96"
   inkscape:export-xdpi="96"
   inkscape:export-filename="VioletAbstract.png"
   inkscape:version="1.0 (4035a4f, 2020-05-01)"
   sodipodi:docname="TInyBubbleFractal.png.svg"
   viewBox="0 0 48.473705 48.522762"
   height="48.522762"
   width="48.473705"
   id="svg126"
   version="1.1">
  <metadata
     id="metadata132">
    <rdf:RDF>
      <cc:Work
         rdf:about="">
        <dc:format>image/svg+xml</dc:format>
        <dc:type
           rdf:resource="http://purl.org/dc/dcmitype/StillImage" />
        <dc:title></dc:title>
      </cc:Work>
    </rdf:RDF>
  </metadata>
  <defs
     id="defs130" />
  <sodipodi:namedview
     fit-margin-bottom="0"
     fit-margin-right="0"
     fit-margin-left="0"
     fit-margin-top="0"
     inkscape:current-layer="g134"
     inkscape:window-maximized="0"
     inkscape:window-y="23"
     inkscape:window-x="0"
     inkscape:cy="24.549297"
     inkscape:cx="33.518225"
     inkscape:zoom="14.36"
     showgrid="false"
     id="namedview128"
     inkscape:window-height="926"
     inkscape:window-width="1491"
     inkscape:pageshadow="2"
     inkscape:pageopacity="0"
     guidetolerance="10"
     gridtolerance="10"
     objecttolerance="10"
     borderopacity="1"
     bordercolor="#666666"
     pagecolor="#ffffff" />
  <g
     transform="translate(-0.66879378,-0.08653473)"
     id="g134"
     inkscape:label="Image"
     inkscape:groupmode="layer">
    <g
       transform="translate(-0.06963702,-0.20891366)"
       id="g138">
      <path
         id="path148"
         d="m 0.76906738,37.900586 c 0.0347131,-12.370316 3.27423072,-12.389287 5.82352672,-0.0341 1.3498679,6.542145 1.8911945,7.035224 7.7453859,7.055042 3.17714,0.01075 4.848092,0.550946 6.049725,1.955771 1.645699,1.923983 1.567255,1.94091 -8.994547,1.94091 -10.6547272,-1e-6 -10.6547272,-1e-6 -10.62409062,-10.917621 z m 29.53832362,8.97671 c 1.661659,-1.101587 4.570773,-1.937232 6.786319,-1.949377 5.327194,-0.0292 6.191106,-0.822781 6.915081,-6.352148 0.643106,-4.911729 2.485985,-9.541004 4.226976,-10.618085 0.633028,-0.391629 0.976369,3.169985 0.976369,10.12824 0,10.73228 0,10.73228 -10.906584,10.725886 -10.906583,-0.0064 -10.906583,-0.0064 -7.998161,-1.934516 z M 0.7384308,12.426138 c 0,-12.13068961 0,-12.13068961 24.2368522,-12.13068961 24.236853,0 24.236853,0 24.206216,12.37330361 -0.03412,13.781113 -3.124292,14.571647 -5.823527,1.489785 C 42.06172,7.8762413 41.366594,7.1247515 36.832076,7.1034949 35.088545,7.0953216 31.934305,5.9968725 29.822654,4.6624966 c -4.741981,-2.9965107 -5.081183,-2.9965107 -9.486487,0 -2.404044,1.6352435 -4.893006,2.4261379 -7.63511,2.4261379 -5.220999,0 -7.1142187,1.88956 -7.1188797,7.1051185 -0.00317,3.544268 -2.8619787,10.363074 -4.3447597,10.363074 -0.27444273,0 -0.4989868,-5.45881 -0.4989868,-12.130689 z"
         style="fill:#fefefe;stroke-width:0.969965" />
      <path
         id="path146"
         d="m 22.778052,47.455639 c -1.516908,-1.152269 -1.263341,-1.28905 2.220159,-1.197617 3.421057,0.0898 3.714318,0.263036 2.254305,1.331704 -2.055953,1.504871 -2.327569,1.496732 -4.474464,-0.134087 z M 9.8367331,43.223229 C 8.4834162,42.330784 7.1130616,38.133941 8.1865244,38.169306 c 2.4911526,0.08207 7.5627116,5.744487 5.1550696,5.755658 -1.333027,0.0062 -2.910214,-0.309596 -3.5048609,-0.701735 z M 37.368634,42.015838 c 1.750841,-1.06856 3.433504,-2.595394 3.739251,-3.392965 0.948597,-2.474507 2.184822,-1.59263 1.679305,1.197953 -0.578126,3.191394 -1.847959,4.111765 -5.69348,4.126616 -2.908423,0.01124 -2.908423,0.01124 0.274924,-1.931604 z M 6.5552754,13.44695 c 0,-2.694873 3.1119758,-5.653192 5.4945286,-5.2232299 1.487384,0.2684176 1.184818,0.8966207 -1.859001,3.8597529 -3.3612517,3.27215 -3.6355276,3.375015 -3.6355276,1.363477 z M 37.578447,10.970455 C 34.263101,8.1768693 34.240868,8.1110439 36.608972,8.1000561 c 3.107598,-0.014419 4.42003,0.8822297 5.266771,3.5982409 0.906003,2.906092 -0.208716,2.717289 -4.297296,-0.727842 z M 22.698051,4.4352947 c 2.10595,-1.5414673 2.45958,-1.5333678 4.701586,0.1076859 1.650871,1.2083686 1.433064,1.3258671 -2.277233,1.2284808 -3.559067,-0.093417 -3.88031,-0.2704679 -2.424353,-1.3361667 z"
         style="fill:#d28ec6;stroke-width:0.969965" />
      <path
         id="path144"
         d="m 28.85318,47.016575 c 0,-0.457147 -1.199724,-0.823512 -2.666054,-0.814145 C 23.397554,46.22025 13.393013,45.116035 9.7917956,44.392855 8.1730597,44.067789 7.5529434,43.03282 7.066612,39.844545 6.2012061,34.171148 4.5499614,30.18325 2.305973,28.34719 0.08593326,26.530726 0.75705563,23.634912 3.3524415,23.831802 c 1.253457,0.09509 1.8175938,1.047355 1.9921862,3.36282 0.6073893,8.055266 11.3082813,17.825956 19.5934033,17.890198 3.529181,0.02736 4.884623,0.415964 4.884623,1.400402 0,0.749392 -0.218132,1.362529 -0.484737,1.362529 -0.266606,0 -0.484737,-0.374029 -0.484737,-0.831176 z m -13.572638,-4.0211 c 0,-0.53375 -0.368407,-0.970455 -0.818683,-0.970455 -1.159093,0 -5.6053091,-4.083531 -6.3398827,-5.822731 -0.3381548,-0.800625 -0.4081928,0.255801 -0.1556401,2.347614 0.2525528,2.091813 1.0199736,4.159474 1.7053797,4.594801 1.7566941,1.115744 5.6088261,1.013254 5.6088261,-0.149229 z m 15.511586,2.596049 c 0,-0.287636 1.417856,-1.518235 3.150791,-2.734665 2.089335,-1.466604 2.702547,-1.652332 1.820241,-0.551309 -1.194808,1.490991 -1.046452,1.658865 1.454211,1.64552 4.01165,-0.02141 5.198744,-1.11023 5.888645,-5.401167 0.580255,-3.608981 0.519741,-3.728924 -1.184423,-2.347614 -1.736211,1.407286 -1.735654,1.352578 0.01677,-1.645521 2.528681,-4.326141 3.261233,-3.250555 2.237379,3.285085 -0.984782,6.286238 -1.72233,7.05862 -6.760376,7.079672 -1.955929,0.0082 -4.246312,0.279936 -5.089739,0.603916 -0.843426,0.323981 -1.533501,0.353718 -1.533501,0.06608 z m 6.786319,-4.502814 c 0,-0.514971 0.981592,-1.451926 2.181316,-2.082121 2.169622,-1.139666 2.171416,-1.134647 0.334481,0.936311 -2.051731,2.313119 -2.515797,2.524476 -2.515797,1.14581 z M 44.605938,24.830399 C 43.998549,16.775133 33.297657,7.0044424 25.012535,6.9402008 21.1239,6.9100489 20.130939,6.5750333 20.142758,5.2971838 c 0.0085,-0.9191961 0.319225,-1.1904252 0.727106,-0.6346872 0.391743,0.5337503 2.675445,1.0630486 5.074893,1.1762184 4.22336,0.1991944 4.28526,0.1618253 1.938949,-1.1705594 -1.333027,-0.7569773 -3.241779,-1.1303135 -4.241672,-0.8296359 -1.180367,0.3549484 -1.585327,0.1698561 -1.154627,-0.5277372 1.045673,-1.6936469 3.27011,-1.2717574 7.126992,1.3517141 2.112825,1.4371548 4.957011,2.4321956 6.977254,2.4409983 4.626513,0.020159 5.548405,0.7989544 6.30326,5.3248671 0.92867,5.568064 2.576787,9.471579 4.749681,11.249468 2.22004,1.816464 1.548917,4.712278 -1.046469,4.515388 -1.253457,-0.09509 -1.817594,-1.047355 -1.992187,-3.362819 z M 42.102278,13.232504 C 41.784799,11.274128 40.964256,9.3156438 40.278851,8.8803159 38.522157,7.7645717 34.670024,7.8670619 34.670024,9.0295448 34.670024,9.5632952 35.038431,10 35.488707,10 c 1.352168,0 5.967636,4.33965 5.967636,5.611014 0,0.650195 0.275213,1.182172 0.611585,1.182172 0.336373,0 0.35183,-1.602307 0.03435,-3.560682 z M 5.4448133,20.210391 C 4.4483564,19.212926 6.2663338,8.836475 7.5837405,8.0020578 8.3511116,7.5160214 10.579268,7.1116681 12.535198,7.1034949 c 1.95593,-0.00817 4.355378,-0.2682352 5.332108,-0.5779154 1.120221,-0.355176 0.716073,0.3455493 -1.094666,1.8979643 -1.578794,1.3535605 -3.033005,2.2983842 -3.23158,2.0996092 -0.550369,-0.5509264 -4.4883989,3.631438 -4.6855831,4.9763 -0.2410563,1.644084 -2.8602901,5.261869 -3.4106636,4.710938 z M 13.439262,9.5751953 c 0.479493,0.2966433 0.871806,0.076873 0.871806,-0.4883771 0,-1.3142784 -3.44519,-1.3278288 -5.8805791,-0.023129 -1.2141533,0.6504526 -1.8752135,2.0307968 -1.8752135,3.9155888 0,2.910989 0,2.910989 3.0060897,-0.516222 1.6533489,-1.884967 3.3984029,-3.1845039 3.8778969,-2.8878607 z"
         style="fill:#81114b;stroke-width:0.969965" />
      <path
         id="path142"
         d="M 22.563462,45.092275 C 10.425331,43.712168 1.9671436,27.686873 7.9673957,17.437856 16.231654,3.3216954 32.409845,3.5204629 41.886129,17.854587 49.808983,29.838942 37.762199,46.820372 22.563462,45.092275 Z m 5.735732,-17.208173 c 2.940135,-2.943109 0.812211,-8.17955 -3.323911,-8.17955 -2.313202,0 -4.84737,2.536733 -4.84737,4.852275 0,0.991251 0.685557,2.488525 1.52346,3.327275 0.837901,0.838751 2.333661,1.525001 3.32391,1.525001 0.990249,0 2.486009,-0.68625 3.323911,-1.525001 z"
         style="fill:#321628;stroke-width:0.969965" />
      <path
         id="path140"
         d="m 21.651373,27.884102 c -2.940135,-2.943109 -0.812211,-8.17955 3.32391,-8.17955 2.313202,0 4.847371,2.536733 4.847371,4.852275 0,2.315543 -2.534169,4.852276 -4.847371,4.852276 -0.990249,0 -2.486009,-0.68625 -3.32391,-1.525001 z"
         style="fill:#000000;stroke-width:0.969965" />
    </g>
  </g>
</svg>
